<?xml version="1.0" encoding="UTF-8" standalone="no"?>
<!DOCTYPE svg PUBLIC "-//W3C//DTD SVG 1.1//EN" "http://www.w3.org/Graphics/SVG/1.1/DTD/svg11.dtd">
<svg width="100%" height="100%" viewBox="0 0 600 300" version="1.1" xmlns="http://www.w3.org/2000/svg" xmlns:xlink="http://www.w3.org/1999/xlink" xml:space="preserve" xmlns:serif="http://www.serif.com/" style="fill-rule:evenodd;clip-rule:evenodd;stroke-linejoin:round;stroke-miterlimit:1.41421;">
    <g id="rain--09-" serif:id="rain (09)">
        <g id="cloud_7" transform="matrix(1.88196,0,0,1.88196,-246.058,-810.309)">
            <path d="M311.11,530.14C310.236,529.454 309.137,529.045 307.945,529.045C305.137,529.045 302.852,531.31 302.78,534.132C299.882,535.231 297.819,538.059 297.819,541.373C297.819,545.289 300.698,548.524 304.432,549.035L304.432,549.105L330.883,549.105L330.883,549.092C334.571,548.876 337.496,545.783 337.496,541.999C337.496,538.35 334.776,535.344 331.274,534.939C331.288,534.717 331.296,534.492 331.296,534.266C331.296,528.611 326.577,524.027 320.757,524.027C316.449,524.027 312.747,526.539 311.11,530.137" style="fill:url(#_Linear1);fill-rule:nonzero;"/>
        </g>
        <g id="cloud_6" transform="matrix(1.80955,0,0,1.80955,-76.7099,-891.828)">
            <path d="M311.11,530.14C310.236,529.454 309.137,529.045 307.945,529.045C305.137,529.045 302.852,531.31 302.78,534.132C299.882,535.231 297.819,538.059 297.819,541.373C297.819,545.289 300.698,548.524 304.432,549.035L304.432,549.105L330.883,549.105L330.883,549.092C334.571,548.876 337.496,545.783 337.496,541.999C337.496,538.35 334.776,535.344 331.274,534.939C331.288,534.717 331.296,534.492 331.296,534.266C331.296,528.611 326.577,524.027 320.757,524.027C316.449,524.027 312.747,526.539 311.11,530.137" style="fill:url(#_Linear2);fill-rule:nonzero;"/>
        </g>
        <g id="cloud_5" transform="matrix(-1.21452,0,0,1.21452,1058.68,-216.097)">
            <path d="M743.78,199.48C744.674,198.778 745.8,198.361 747.015,198.361C749.885,198.361 752.22,200.676 752.294,203.561C755.257,204.685 757.365,207.571 757.365,210.963C757.365,214.963 754.423,218.273 750.606,218.794L750.606,218.866L723.566,218.866L723.566,218.853C719.796,218.632 716.807,215.471 716.807,211.603C716.807,207.873 719.587,204.801 723.167,204.388C723.152,204.161 723.144,203.931 723.144,203.7C723.144,197.92 727.967,193.234 733.917,193.234C738.321,193.234 742.107,195.801 743.778,199.479" style="fill:url(#_Linear3);fill-rule:nonzero;"/>
        </g>
        <g id="cloud_4" transform="matrix(2.76729,0,0,2.76729,-727.702,-1328.01)">
            <path d="M311.11,530.14C310.236,529.454 309.137,529.045 307.945,529.045C305.137,529.045 302.852,531.31 302.78,534.132C299.882,535.231 297.819,538.059 297.819,541.373C297.819,545.289 300.698,548.524 304.432,549.035L304.432,549.105L330.883,549.105L330.883,549.092C334.571,548.876 337.496,545.783 337.496,541.999C337.496,538.35 334.776,535.344 331.274,534.939C331.288,534.717 331.296,534.492 331.296,534.266C331.296,528.611 326.577,524.027 320.757,524.027C316.449,524.027 312.747,526.539 311.11,530.137" style="fill:url(#_Linear4);fill-rule:nonzero;"/>
        </g>
        <g transform="matrix(1.19336,0,0,1.19336,-661.796,-173.093)">
            <path d="M743.78,199.48C744.674,198.778 745.8,198.361 747.015,198.361C749.885,198.361 752.22,200.676 752.294,203.561C755.257,204.685 757.365,207.571 757.365,210.963C757.365,214.963 754.423,218.273 750.606,218.794L750.606,218.866L723.566,218.866L723.566,218.853C719.796,218.632 716.807,215.471 716.807,211.603C716.807,207.873 719.587,204.801 723.167,204.388C723.152,204.161 723.144,203.931 723.144,203.7C723.144,197.92 727.967,193.234 733.917,193.234C738.321,193.234 742.107,195.801 743.778,199.479" style="fill:url(#_Linear5);fill-rule:nonzero;"/>
        </g>
        <g transform="matrix(1.56828,0,0,1.56828,-146.974,-812.823)">
            <path d="M311.11,530.14C310.236,529.454 309.137,529.045 307.945,529.045C305.137,529.045 302.852,531.31 302.78,534.132C299.882,535.231 297.819,538.059 297.819,541.373C297.819,545.289 300.698,548.524 304.432,549.035L304.432,549.105L330.883,549.105L330.883,549.092C334.571,548.876 337.496,545.783 337.496,541.999C337.496,538.35 334.776,535.344 331.274,534.939C331.288,534.717 331.296,534.492 331.296,534.266C331.296,528.611 326.577,524.027 320.757,524.027C316.449,524.027 312.747,526.539 311.11,530.137" style="fill:url(#_Linear6);fill-rule:nonzero;"/>
        </g>
        <g transform="matrix(1.12268,0,0,1.12268,-42.7227,-561.06)">
            <path d="M311.11,530.14C310.236,529.454 309.137,529.045 307.945,529.045C305.137,529.045 302.852,531.31 302.78,534.132C299.882,535.231 297.819,538.059 297.819,541.373C297.819,545.289 300.698,548.524 304.432,549.035L304.432,549.105L330.883,549.105L330.883,549.092C334.571,548.876 337.496,545.783 337.496,541.999C337.496,538.35 334.776,535.344 331.274,534.939C331.288,534.717 331.296,534.492 331.296,534.266C331.296,528.611 326.577,524.027 320.757,524.027C316.449,524.027 312.747,526.539 311.11,530.137" style="fill:url(#_Linear7);fill-rule:nonzero;"/>
        </g>
        <g transform="matrix(1.45935,0,0,1.45935,-694.348,-243.194)">
            <path d="M743.78,199.48C744.674,198.778 745.8,198.361 747.015,198.361C749.885,198.361 752.22,200.676 752.294,203.561C755.257,204.685 757.365,207.571 757.365,210.963C757.365,214.963 754.423,218.273 750.606,218.794L750.606,218.866L723.566,218.866L723.566,218.853C719.796,218.632 716.807,215.471 716.807,211.603C716.807,207.873 719.587,204.801 723.167,204.388C723.152,204.161 723.144,203.931 723.144,203.7C723.144,197.92 727.967,193.234 733.917,193.234C738.321,193.234 742.107,195.801 743.778,199.479" style="fill:url(#_Linear8);fill-rule:nonzero;"/>
        </g>
    </g>
    <g transform="matrix(1.5252,0,0,1.5252,-716.236,-235.602)">
        <g id="snow-rain" serif:id="snow/rain">
            <g>
                <g transform="matrix(1,0,0,1,5.385,0)">
                    <circle cx="729.08" cy="211.38" r="3.231" style="fill:url(#_Linear9);"/>
                </g>
                <g transform="matrix(1,0,0,1,5.385,0)">
                    <circle cx="717" cy="218.16" r="3.231" style="fill:url(#_Linear10);"/>
                </g>
                <g transform="matrix(1,0,0,1,5.385,0)">
                    <circle cx="702.65" cy="212.7" r="3.231" style="fill:url(#_Linear11);"/>
                </g>
                <g transform="matrix(0.66147,0,0,0.66147,1066.97,333.77)">
                    <ellipse cx="-527.54" cy="-184.76" rx="4.377" ry="4.284" style="fill:url(#_Linear12);"/>
                    <ellipse cx="-527.82" cy="-167.79" rx="3.446" ry="3.372" style="fill:url(#_Linear13);"/>
                    <ellipse cx="-538.44" cy="-172.11" rx="2.328" ry="2.279" style="fill:url(#_Linear14);"/>
                    <ellipse cx="-512.55" cy="-188.11" rx="2.328" ry="2.279" style="fill:url(#_Linear15);"/>
                    <ellipse cx="-507.52" cy="-175.82" rx="2.328" ry="2.279" style="fill:url(#_Linear16);"/>
                </g>
            </g>
        </g>
    </g>
    <defs>
        <linearGradient id="_Linear1" x1="0" y1="0" x2="1" y2="0" gradientUnits="userSpaceOnUse" gradientTransform="matrix(-7.0234,-13.7462,13.7462,-7.0234,315.241,547.991)"><stop offset="0" style="stop-color:rgb(195,230,238);stop-opacity:0.398431"/><stop offset="1" style="stop-color:white;stop-opacity:0.398431"/></linearGradient>
        <linearGradient id="_Linear2" x1="0" y1="0" x2="1" y2="0" gradientUnits="userSpaceOnUse" gradientTransform="matrix(-7.0234,-13.7462,13.7462,-7.0234,315.241,547.991)"><stop offset="0" style="stop-color:rgb(195,230,238);stop-opacity:0.498039"/><stop offset="1" style="stop-color:white;stop-opacity:0.498039"/></linearGradient>
        <linearGradient id="_Linear3" x1="0" y1="0" x2="1" y2="0" gradientUnits="userSpaceOnUse" gradientTransform="matrix(-4.1629,-14.1573,14.1573,-4.1629,739.553,217.734)"><stop offset="0" style="stop-color:rgb(200,225,232);stop-opacity:0.25"/><stop offset="1" style="stop-color:white;stop-opacity:0.25"/></linearGradient>
        <linearGradient id="_Linear4" x1="0" y1="0" x2="1" y2="0" gradientUnits="userSpaceOnUse" gradientTransform="matrix(-7.0234,-13.7462,13.7462,-7.0234,315.241,547.991)"><stop offset="0" style="stop-color:rgb(195,230,238);stop-opacity:0.398431"/><stop offset="1" style="stop-color:white;stop-opacity:0.398431"/></linearGradient>
        <linearGradient id="_Linear5" x1="0" y1="0" x2="1" y2="0" gradientUnits="userSpaceOnUse" gradientTransform="matrix(-4.1629,-14.1573,14.1573,-4.1629,739.553,217.734)"><stop offset="0" style="stop-color:rgb(200,225,232);stop-opacity:0.7"/><stop offset="1" style="stop-color:white;stop-opacity:0.7"/></linearGradient>
        <linearGradient id="_Linear6" x1="0" y1="0" x2="1" y2="0" gradientUnits="userSpaceOnUse" gradientTransform="matrix(-4.63378,-15.6682,15.6682,-4.63378,321.08,540.993)"><stop offset="0" style="stop-color:rgb(183,215,225);stop-opacity:0.7"/><stop offset="1" style="stop-color:white;stop-opacity:0.7"/></linearGradient>
        <linearGradient id="_Linear7" x1="0" y1="0" x2="1" y2="0" gradientUnits="userSpaceOnUse" gradientTransform="matrix(-7.0234,-13.7462,13.7462,-7.0234,315.241,547.991)"><stop offset="0" style="stop-color:rgb(195,230,238);stop-opacity:1"/><stop offset="1" style="stop-color:white;stop-opacity:1"/></linearGradient>
        <linearGradient id="_Linear8" x1="0" y1="0" x2="1" y2="0" gradientUnits="userSpaceOnUse" gradientTransform="matrix(-4.1629,-14.1573,14.1573,-4.1629,739.553,217.734)"><stop offset="0" style="stop-color:rgb(200,225,232);stop-opacity:1"/><stop offset="1" style="stop-color:white;stop-opacity:1"/></linearGradient>
        <linearGradient id="_Linear9" x1="0" y1="0" x2="1" y2="0" gradientUnits="userSpaceOnUse" gradientTransform="matrix(3.95561e-16,-6.46,6.46,3.95561e-16,0,214.61)"><stop offset="0" style="stop-color:rgb(173,212,233);stop-opacity:1"/><stop offset="1" style="stop-color:rgb(240,251,254);stop-opacity:1"/></linearGradient>
        <linearGradient id="_Linear10" x1="0" y1="0" x2="1" y2="0" gradientUnits="userSpaceOnUse" gradientTransform="matrix(3.95561e-16,-6.46,6.46,3.95561e-16,0,221.39)"><stop offset="0" style="stop-color:rgb(173,212,233);stop-opacity:1"/><stop offset="1" style="stop-color:rgb(240,251,254);stop-opacity:1"/></linearGradient>
        <linearGradient id="_Linear11" x1="0" y1="0" x2="1" y2="0" gradientUnits="userSpaceOnUse" gradientTransform="matrix(3.95561e-16,-6.46,6.46,3.95561e-16,0,215.93)"><stop offset="0" style="stop-color:rgb(173,212,233);stop-opacity:1"/><stop offset="1" style="stop-color:rgb(240,251,254);stop-opacity:1"/></linearGradient>
        <linearGradient id="_Linear12" x1="0" y1="0" x2="1" y2="0" gradientUnits="userSpaceOnUse" gradientTransform="matrix(0.75,-8.57,8.57,0.75,-528.01,-179.91)"><stop offset="0" style="stop-color:rgb(173,212,233);stop-opacity:1"/><stop offset="1" style="stop-color:rgb(240,251,254);stop-opacity:1"/></linearGradient>
        <linearGradient id="_Linear13" x1="0" y1="0" x2="1" y2="0" gradientUnits="userSpaceOnUse" gradientTransform="matrix(0.59,-6.74,6.74,0.59,-528.19,-163.98)"><stop offset="0" style="stop-color:rgb(173,212,233);stop-opacity:1"/><stop offset="1" style="stop-color:rgb(240,251,254);stop-opacity:1"/></linearGradient>
        <linearGradient id="_Linear14" x1="0" y1="0" x2="1" y2="0" gradientUnits="userSpaceOnUse" gradientTransform="matrix(0.39,-4.56,4.56,0.39,-538.68,-169.54)"><stop offset="0" style="stop-color:rgb(173,212,233);stop-opacity:1"/><stop offset="1" style="stop-color:rgb(240,251,254);stop-opacity:1"/></linearGradient>
        <linearGradient id="_Linear15" x1="0" y1="0" x2="1" y2="0" gradientUnits="userSpaceOnUse" gradientTransform="matrix(0.4,-4.56,4.56,0.4,-512.8,-185.53)"><stop offset="0" style="stop-color:rgb(173,212,233);stop-opacity:1"/><stop offset="1" style="stop-color:rgb(240,251,254);stop-opacity:1"/></linearGradient>
        <linearGradient id="_Linear16" x1="0" y1="0" x2="1" y2="0" gradientUnits="userSpaceOnUse" gradientTransform="matrix(0.4,-4.56,4.56,0.4,-507.77,-173.24)"><stop offset="0" style="stop-color:rgb(173,212,233);stop-opacity:1"/><stop offset="1" style="stop-color:rgb(240,251,254);stop-opacity:1"/></linearGradient>
    </defs>
</svg>
