<?xml version="1.0" encoding="UTF-8" standalone="no"?>
<!DOCTYPE svg PUBLIC "-//W3C//DTD SVG 1.1//EN" "http://www.w3.org/Graphics/SVG/1.1/DTD/svg11.dtd">
<svg width="100%" height="100%" viewBox="0 0 500 60" version="1.1" xmlns="http://www.w3.org/2000/svg" xmlns:xlink="http://www.w3.org/1999/xlink" xml:space="preserve" xmlns:serif="http://www.serif.com/" style="fill-rule:evenodd;clip-rule:evenodd;stroke-linejoin:round;stroke-miterlimit:1.41421;">
    <g id="_1" serif:id="1" transform="matrix(1,0,0,1.08293,3.78653e-29,-4.97569)">
        <path d="M500,32.297C334.516,62.218 167.854,62.32 0,32.297L0,60L500,60L500,32.297Z" style="fill:white;"/>
    </g>
    <g id="_2" serif:id="2" transform="matrix(0.244141,0,0,0.870915,-7.14984e-14,-9.6732)">
        <path d="M2048,34.61C1372.94,71.568 690.253,77.455 0,40.351L0,80L2048,80L2048,34.61Z" style="fill:white;fill-opacity:0.5;"/>
    </g>
    <g id="_3" serif:id="3" transform="matrix(0.244141,0,0,0.647573,1.84963e-13,6.78882)">
        <path d="M2048,12.778C1375.52,65.554 690.332,59.609 0,12.412L0,80L2048,80L2048,12.778Z" style="fill:white;fill-opacity:0.3;"/>
    </g>
    <g id="_5" serif:id="5" transform="matrix(0.244141,0,0,0.64599,-1.00974e-28,6.91545)">
        <path d="M2048,-1.417C1334.83,43.675 640.135,61.512 0,12.246L0,80L2048,80L2048,-1.417Z" style="fill:white;fill-opacity:0.2;"/>
    </g>
    <g id="_6" serif:id="6" transform="matrix(0.244141,0,0,0.64599,-1.00974e-28,6.91545)">
        <path d="M2048,-10.705C1347.25,33.393 651.024,45.723 0,-10.705L0,80L2048,80L2048,-10.705Z" style="fill:white;fill-opacity:0.15;"/>
    </g>
</svg>
